<svg aria-hidden="true" style="position: absolute; width: 0; height: 0; overflow: hidden;" version="1.1" xmlns="http://www.w3.org/2000/svg" xmlns:xlink="http://www.w3.org/1999/xlink">
<defs>
<symbol id="icon-heart" viewBox="0 0 34 32">
<path d="M17.231 31.705l-2.412-2.412c-8.96-7.926-14.818-13.268-14.818-19.815 0-5.342 4.135-9.477 9.477-9.477 2.929 0 5.858 1.378 7.754 3.618 1.895-2.24 4.825-3.618 7.754-3.618 5.342 0 9.477 4.135 9.477 9.477 0 6.548-5.858 11.889-14.818 19.815l-2.412 2.412z"></path>
</symbol>
<symbol id="icon-github" viewBox="0 0 32 32">
<path d="M16 0c-8.836 0-16 7.164-16 16 0 8.837 7.164 16 16 16s16-7.163 16-16c-0-8.836-7.164-16-16-16zM20.482 28.189c-0.092-1.252-0.195-2.803-0.201-3.431-0.040-0.482-0.092-1.708-1.256-2.491 4.621-0.387 6.82-2.941 6.978-6.316 0.132-1.922-0.632-3.612-1.989-4.976 0.069-1.459-0.044-3.188-0.138-3.948-1.042-0.3-3.472 0.983-4.151 1.532-1.432-0.556-4.937-0.751-7.067 0-1.51-1.062-3.229-1.718-4.166-1.535-0.865 1.917-0.309 3.729-0.14 3.945-1.114 1.018-2.668 2.271-2.246 4.896 0.677 3.849 3.385 5.925 7.745 6.433-0.93 0.19-1.087 0.884-1.165 1.185-2.928 1.208-3.765-0.746-4.135-1.255-1.229-1.521-2.332-1.080-2.4-1.056-0.066 0.024-0.116 0.12-0.109 0.166 0.062 0.328 0.731 0.661 0.764 0.688 0.907 0.676 1.243 1.897 1.45 2.245 1.301 2.139 4.325 1.252 4.354 1.27 0.002 0.187-0.021 1.761-0.039 2.986-5.514-1.506-9.571-6.536-9.571-12.527 0-7.18 5.82-13 13-13s13 5.82 13 13c0 5.603-3.55 10.362-8.518 12.189z"></path>
</symbol>
</defs>
</svg>
