<svg width="44" height="18" fill="none" xmlns="http://www.w3.org/2000/svg"><rect width="44" height="18" rx="9" fill="url('#paint0_linear_4641_29480')"/><path d="M2.95 8.83c.178 2.51 2.329 4.553 4.903 4.665a5.191 5.191 0 0 0 4.415-2.081c.403-.541.187-.902-.487-.78-.33.059-.67.083-1.024.068-2.407-.097-4.376-2.09-4.385-4.445A4.3 4.3 0 0 1 6.74 4.48c.265-.605-.054-.892-.67-.634-1.949.814-3.283 2.759-3.12 4.986Z" stroke="#fff" stroke-linecap="round" stroke-linejoin="round"/><path d="M30.544 4.236c2.582-2.64 6.76-2.65 9.333-.018 2.573 2.631 2.565 6.905-.017 9.546-2.583 2.64-6.762 2.65-9.334.018-2.573-2.631-2.565-6.905.018-9.546Z" fill="#fff"/><path d="M38.998 4.93c2.111 2.308 2.104 6.058-.017 8.376" stroke="url('#paint1_linear_4641_29480')" stroke-width="1.2" stroke-linecap="round"/><defs><linearGradient id="paint0_linear_4641_29480" x1="5.374" y1="1.286" x2="13.319" y2="25.457" gradientUnits="userSpaceOnUse"><stop stop-color="#FFC226"/><stop offset="1" stop-color="#F84119"/></linearGradient><linearGradient id="paint1_linear_4641_29480" x1="39.175" y1="5.529" x2="41.974" y2="6.193" gradientUnits="userSpaceOnUse"><stop stop-color="#FFC226"/><stop offset="1" stop-color="#F84119"/></linearGradient></defs></svg>