<svg width="44" height="18" fill="none" xmlns="http://www.w3.org/2000/svg"><rect width="44" height="18" rx="9" fill="url('#paint0_linear_4641_29470')"/><ellipse cx="6.75" cy="6.947" rx="6.75" ry="6.947" transform="matrix(0 1 -.99995 -.01017 16.21 2.393)" fill="#fff"/><path d="M5.208 12.518C3.109 10.51 3.11 7.255 5.21 5.245" stroke="url('#paint1_linear_4641_29470')" stroke-width=".6" stroke-linecap="round"/><path d="M34.736 11.863c1.628 0 2.948-1.282 2.948-2.864 0-1.582-1.32-2.864-2.948-2.864-1.627 0-2.947 1.282-2.947 2.864 0 1.582 1.32 2.864 2.947 2.864Z" stroke="#fff" stroke-width=".8" stroke-linecap="round" stroke-linejoin="round"/><path d="m37.984 5.847.06-.059m-6.614 6.426.06-.058m3.247-7.619v-.036m0 9v-.036m-4.595-4.464h-.037m9.264 0h-.037M31.49 5.847l-.06-.059m6.614 6.426-.06-.058" stroke="#fff" stroke-linecap="round" stroke-linejoin="round"/><defs><linearGradient id="paint0_linear_4641_29470" x1="5.374" y1="1.286" x2="13.319" y2="25.457" gradientUnits="userSpaceOnUse"><stop stop-color="#FFC226"/><stop offset="1" stop-color="#F84119"/></linearGradient><linearGradient id="paint1_linear_4641_29470" x1="5.018" y1="11.998" x2="2.297" y2="11.264" gradientUnits="userSpaceOnUse"><stop stop-color="#FFC226"/><stop offset="1" stop-color="#F84119"/></linearGradient></defs></svg>